<?xml version="1.0" standalone="no"?>
<!DOCTYPE svg PUBLIC "-//W3C//DTD SVG 20010904//EN"
 "http://www.w3.org/TR/2001/REC-SVG-20010904/DTD/svg10.dtd">
<svg version="1.0" xmlns="http://www.w3.org/2000/svg"
 width="228.000000pt" height="228.000000pt" viewBox="0 0 228.000000 228.000000"
 preserveAspectRatio="xMidYMid meet">
<metadata>
Created by potrace 1.11, written by Peter Selinger 2001-2013
</metadata>
<g transform="translate(0.000000,228.000000) scale(0.100000,-0.100000)"
fill="#000000" stroke="none">
<path d="M924 2149 c-91 -57 -140 -129 -170 -245 -18 -72 -16 -92 20 -175 5
-12 -8 -34 -44 -75 -52 -59 -120 -157 -159 -229 -12 -22 -35 -65 -52 -95 -17
-30 -44 -95 -61 -145 -36 -106 -35 -170 6 -273 31 -79 72 -131 136 -172 50
-32 57 -50 19 -50 -42 0 -110 -53 -138 -107 -6 -12 -11 -49 -11 -82 0 -55 3
-65 34 -98 21 -24 36 -53 40 -79 8 -46 -10 -166 -31 -207 l-14 -27 556 0 555
0 0 38 1 37 20 -37 19 -38 106 0 105 0 -31 54 c-36 64 -80 185 -80 220 0 14
11 36 24 49 14 14 31 48 40 76 13 46 13 56 0 102 -9 31 -31 68 -54 93 -39 43
-113 86 -145 86 -16 0 -16 3 7 28 14 15 36 50 49 77 22 46 24 62 23 190 0 150
-10 189 -81 328 -79 158 -245 345 -360 408 -46 25 -61 38 -56 49 13 30 15 163
3 204 -23 79 -87 126 -173 126 -42 0 -63 -6 -103 -31z m174 -606 c-66 -4 -66
-4 -81 -41 -8 -20 -19 -54 -25 -74 l-10 -38 41 -1 c23 -1 31 -3 17 -5 -14 -2
-55 -9 -93 -16 -37 -6 -69 -9 -72 -6 -3 3 6 38 20 79 29 86 28 79 16 79 -5 0
-15 -25 -22 -55 -7 -31 -16 -58 -21 -61 -4 -3 -8 -14 -8 -25 0 -15 -7 -19 -34
-19 -38 0 -96 18 -96 30 0 5 14 2 31 -7 16 -8 32 -13 35 -10 3 2 13 34 24 71
l19 66 -27 -5 c-17 -3 -12 1 13 11 57 23 126 32 240 31 70 -1 80 -2 33 -4z
m130 -81 l-1 -37 -4 38 c-3 28 -10 41 -29 49 -13 6 -24 15 -24 20 0 5 14 0 30
-12 25 -18 30 -28 28 -58z m-451 32 c-3 -3 -12 -4 -19 -1 -8 3 -5 6 6 6 11 1
17 -2 13 -5z m-47 -74 c0 -5 -2 -10 -4 -10 -3 0 -8 5 -11 10 -3 6 -1 10 4 10
6 0 11 -4 11 -10z m443 -7 c-7 -2 -19 -2 -25 0 -7 3 -2 5 12 5 14 0 19 -2 13
-5z m-53 -13 c-20 -13 -53 -13 -45 0 3 6 18 10 33 10 21 0 24 -2 12 -10z
m-120 -371 c0 -52 -3 -70 -12 -67 -32 11 -53 120 -25 131 33 14 37 7 37 -64z"/>
</g>
</svg>
